# Blender 5.2.0 LTS
# www.blender.org
mtllib chair.mtl
o Chair
v -0.105036 0.664323 0.046911
v -0.115961 -0.200446 -0.053984
v -0.101225 0.666906 0.012215
v -0.070249 0.663445 0.050667
v -0.066439 0.666028 0.015971
v 0.243006 -0.212182 0.019876
v 0.257741 0.655170 0.086076
v 0.246816 -0.209599 -0.014819
v 0.261552 0.657754 0.051380
v 0.277792 -0.213060 0.023632
v 0.292528 0.654293 0.089831
v -0.043331 0.251504 -0.358166
v -0.043847 0.226919 -0.359187
v -0.040572 0.252268 -0.377960
v -0.041088 0.227683 -0.378981
v 0.318099 0.241831 -0.308163
v 0.317582 0.217246 -0.309184
v 0.320858 0.242596 -0.327957
v 0.320341 0.218011 -0.328978
v -0.093681 0.237554 0.003076
v -0.094197 0.212969 0.002054
v -0.090922 0.238318 -0.016718
v -0.091439 0.213733 -0.017740
v 0.267748 0.227882 0.053079
v 0.267232 0.203297 0.052057
v 0.270507 0.228646 0.033285
v 0.269991 0.204061 0.032263
v -0.102204 0.238201 -0.008191
v -0.102720 0.213616 -0.009213
v -0.051853 0.252151 -0.369433
v -0.052370 0.227566 -0.370454
v -0.082399 0.237671 -0.005451
v -0.082916 0.213086 -0.006473
v -0.032049 0.251621 -0.366693
v -0.032566 0.227036 -0.367714
v 0.259226 0.228529 0.041812
v 0.258709 0.203944 0.040790
v 0.309576 0.242479 -0.319430
v 0.309059 0.217893 -0.320451
v 0.279030 0.227999 0.044552
v 0.278513 0.203414 0.043530
v 0.329380 0.241949 -0.316690
v 0.328864 0.217363 -0.317711
v -0.050680 -0.081915 -0.369539
v -0.050155 -0.056942 -0.368502
v -0.047231 -0.080959 -0.394282
v -0.046706 -0.055986 -0.393244
v 0.310750 -0.091587 -0.319536
v 0.311274 -0.066614 -0.318499
v 0.314198 -0.090631 -0.344279
v 0.314723 -0.065658 -0.343241
v -0.086149 0.595982 0.017966
v -0.084889 0.655917 0.020456
v -0.083390 0.596747 -0.001828
v -0.082131 0.656682 0.000662
v 0.275280 0.586310 0.067969
v 0.276540 0.646245 0.070459
v 0.278039 0.587074 0.048175
v 0.279299 0.647009 0.050665
v -0.091534 0.339737 0.007321
v -0.090589 0.384689 0.009188
v -0.088775 0.340502 -0.012473
v -0.087830 0.385453 -0.010606
v 0.269896 0.330065 0.057324
v 0.270840 0.375016 0.059191
v 0.272655 0.330829 0.037530
v 0.273599 0.375781 0.039397
v -0.020386 0.345780 0.017471
v -0.014082 0.645748 0.029933
v -0.017627 0.346545 -0.002323
v -0.011323 0.646512 0.010139
v 0.009321 0.344985 0.021581
v 0.015624 0.644953 0.034043
v 0.012080 0.345750 0.001787
v 0.018383 0.645717 0.014249
v -0.072070 -0.100569 -0.365315
v -0.071546 -0.075596 -0.364277
v -0.068622 -0.099613 -0.390057
v -0.068097 -0.074640 -0.389020
v 0.289359 -0.110241 -0.315312
v 0.289884 -0.085268 -0.314274
v 0.292807 -0.109286 -0.340054
v 0.293332 -0.084313 -0.339017
v -0.050155 -0.056942 -0.368502
v -0.047231 -0.080959 -0.394282
v -0.046706 -0.055986 -0.393244
v 0.311274 -0.066614 -0.318499
v 0.314198 -0.090631 -0.344279
v 0.314723 -0.065658 -0.343241
v -0.046706 -0.055986 -0.393244
v 0.314723 -0.065658 -0.343241
v -0.046706 -0.055986 -0.393244
v 0.314723 -0.065658 -0.343241
v -0.105603 -0.095346 -0.019327
v -0.105078 -0.070373 -0.018290
v -0.102154 -0.094391 -0.044070
v -0.101629 -0.069418 -0.043032
v 0.255827 -0.105019 0.030676
v 0.256351 -0.080046 0.031713
v 0.259275 -0.104063 0.005933
v 0.259800 -0.079090 0.006971
v -0.126993 -0.114000 -0.015103
v -0.126469 -0.089027 -0.014066
v -0.123545 -0.113045 -0.039846
v -0.123020 -0.088072 -0.038808
v 0.234436 -0.123673 0.034900
v 0.234961 -0.098700 0.035937
v 0.237884 -0.122717 0.010157
v 0.238409 -0.097744 0.011195
v -0.105238 -0.072202 0.026694
v 0.256191 -0.081875 0.076697
v 0.338923 -0.091861 -0.327188
v 0.339448 -0.066888 -0.326151
v 0.267411 -0.105218 0.030488
v 0.267936 -0.080245 0.031526
v 0.314414 -0.091144 -0.332062
v 0.314938 -0.066171 -0.331024
v 0.242901 -0.104500 0.025615
v 0.243426 -0.079527 0.026652
v -0.020386 0.345780 0.017471
v -0.014082 0.645748 0.029933
v -0.017627 0.346545 -0.002323
v -0.011323 0.646512 0.010139
v 0.009321 0.344985 0.021581
v 0.015624 0.644953 0.034043
v 0.012080 0.345750 0.001787
v 0.018383 0.645717 0.014249
v 0.077777 0.343153 0.031052
v 0.084080 0.643121 0.043514
v 0.080536 0.343918 0.011258
v 0.086839 0.643885 0.023720
v 0.107483 0.342358 0.035161
v 0.113787 0.642326 0.047623
v 0.110242 0.343123 0.015367
v 0.116546 0.643090 0.027829
v 0.159193 0.340975 0.042315
v 0.165496 0.640942 0.054777
v 0.161951 0.341739 0.022521
v 0.168255 0.641707 0.034983
v 0.188899 0.340180 0.046425
v 0.195202 0.640147 0.058887
v 0.191658 0.340944 0.026631
v 0.197961 0.640912 0.039093
v -0.110016 -0.070069 -0.022246
v -0.110541 -0.095042 -0.023283
v -0.038504 -0.056712 -0.379922
v -0.039029 -0.081685 -0.380960
v -0.085506 -0.070786 -0.017372
v -0.086031 -0.095759 -0.018410
v -0.013994 -0.057429 -0.375049
v -0.014519 -0.082402 -0.376086
v -0.107475 0.242956 -0.007580
v -0.107585 0.237733 -0.007797
v -0.057460 0.256813 -0.366416
v -0.057570 0.251590 -0.366633
v 0.277672 0.232649 0.045704
v 0.277563 0.227426 0.045487
v 0.327687 0.246506 -0.313132
v 0.327578 0.241283 -0.313349
v -0.070417 -0.166201 -0.394892
v -0.057222 0.243914 -0.362485
v -0.065574 -0.158656 -0.428562
v -0.052378 0.251459 -0.396155
v -0.035760 -0.167684 -0.390239
v -0.022564 0.242431 -0.357832
v -0.030916 -0.160139 -0.423909
v -0.017721 0.249976 -0.391502
v 0.291012 -0.181665 -0.346367
v 0.304208 0.228450 -0.313960
v 0.295855 -0.174120 -0.380036
v 0.309051 0.235995 -0.347629
v 0.325670 -0.183147 -0.341714
v 0.338865 0.226967 -0.309307
v 0.330513 -0.175603 -0.375383
v 0.343709 0.234512 -0.342976
v -0.115961 -0.200446 -0.053984
v -0.118810 -0.146411 -0.014967
v -0.135247 -0.198292 -0.077924
v -0.084023 -0.147289 -0.011211
v -0.080212 -0.144706 -0.045907
v -0.115961 -0.200446 -0.053984
v 0.247739 -0.209622 -0.014720
v 0.277893 -0.212991 0.022712
v 0.292629 0.654361 0.088911
v 0.262474 0.657730 0.051479
vn 0.0169 0.9970 0.0761
vn -0.9939 0.0251 -0.1073
vn -0.1089 -0.0738 0.9913
vn 0.9902 -0.0265 0.1370
vn -0.1379 -0.0382 0.9897
vn -0.9902 0.0265 -0.1370
vn 0.1379 0.0382 -0.9897
vn -0.0210 -0.9989 -0.0415
vn 0.0210 0.9989 0.0415
vn 0.9804 -0.0287 0.1949
vn -0.1959 -0.0366 0.9799
vn -0.9804 0.0287 -0.1949
vn 0.1959 0.0366 -0.9799
vn -0.9902 0.0424 -0.1329
vn 0.1358 0.0737 -0.9880
vn 0.9902 -0.0424 0.1329
vn -0.1358 -0.0737 0.9880
vn -0.0122 -0.9754 -0.2203
vn 0.0122 0.9754 0.2203
vn 0.3112 -0.7022 0.6403
vn 0.5947 -0.6897 0.4131
vn -0.0000 1.0000 -0.0000
vn 0.9939 -0.0251 0.1073
vn 0.1089 0.0738 -0.9913
vn 0.7798 0.0345 -0.6251
vn -0.0169 -0.9970 -0.0761
vt 0.430143 0.691644
vt 0.430143 0.721694
vt 0.400244 0.721694
vt 0.400244 0.691644
vt 0.712724 0.746954
vt 0.712724 -0.000000
vt 0.742774 0.000000
vt 0.742774 0.746954
vt 0.772823 0.744261
vt 0.772823 0.000016
vt 0.802872 -0.000000
vt 0.802872 0.744245
vt 0.430143 0.773208
vt 0.430143 0.794339
vt 0.412972 0.794339
vt 0.412972 0.773208
vt 0.558590 0.960688
vt 0.537463 0.960690
vt 0.537463 0.647319
vt 0.558590 0.647317
vt 0.430143 0.794339
vt 0.430143 0.815470
vt 0.412972 0.815470
vt 0.412972 0.794339
vt 0.580392 0.647319
vt 0.601518 0.647322
vt 0.601518 0.960693
vt 0.580392 0.960691
vt 0.619027 0.333942
vt 0.619027 0.647319
vt 0.601856 0.647319
vt 0.601856 0.333942
vt 0.447314 0.647317
vt 0.447314 0.960694
vt 0.430143 0.960694
vt 0.430143 0.647317
vt 0.806961 0.795775
vt 0.806961 0.816906
vt 0.789790 0.816906
vt 0.789790 0.795775
vt 0.021127 0.960691
vt 0.000000 0.960693
vt -0.000000 0.647322
vt 0.021127 0.647320
vt 0.789790 0.795775
vt 0.789790 0.816906
vt 0.772619 0.816906
vt 0.772619 0.795775
vt 0.107625 0.647318
vt 0.128752 0.647321
vt 0.128752 0.960692
vt 0.107625 0.960689
vt 0.618690 0.647319
vt 0.618690 0.960697
vt 0.601518 0.960697
vt 0.601518 0.647319
vt 0.580392 0.647319
vt 0.580392 0.960697
vt 0.563220 0.960697
vt 0.563220 0.647319
vt 0.862971 0.626748
vt 0.884102 0.626748
vt 0.884102 0.940119
vt 0.862971 0.940119
vt 0.759945 0.795795
vt 0.759945 0.816922
vt 0.742774 0.816920
vt 0.742774 0.795793
vt 0.927355 -0.000000
vt 0.948486 -0.000000
vt 0.948486 0.313371
vt 0.927355 0.313371
vt 0.734159 0.798486
vt 0.734159 0.819613
vt 0.716988 0.819615
vt 0.716988 0.798488
vt 0.982829 0.940129
vt 0.965657 0.940129
vt 0.965657 0.626755
vt 0.982829 0.626755
vt 1.000000 0.313374
vt 0.982829 0.313374
vt 0.982829 0.000000
vt 1.000000 0.000000
vt 0.948486 0.313371
vt 0.948486 0.626743
vt 0.927355 0.626743
vt 0.678353 0.802763
vt 0.678353 0.823890
vt 0.661182 0.823888
vt 0.661182 0.802761
vt 0.927355 0.626743
vt 0.948486 0.626743
vt 0.948486 0.940114
vt 0.927355 0.940114
vt 0.639747 0.798486
vt 0.639747 0.819613
vt 0.622576 0.819615
vt 0.622576 0.798488
vt 1.000000 0.626752
vt 0.982829 0.626752
vt 0.982829 0.313377
vt 1.000000 0.313377
vt 1.000000 0.940129
vt 0.982829 0.940129
vt 0.982829 0.626755
vt 1.000000 0.626755
vt 0.378780 0.713109
vt 0.378780 0.691644
vt 0.400244 0.713109
vt 0.905891 0.626748
vt 0.884431 0.626745
vt 0.884431 0.313374
vt 0.905891 0.313377
vt 0.358508 0.773208
vt 0.358508 0.751744
vt 0.379972 0.751744
vt 0.379972 0.773208
vt 0.862971 0.000003
vt 0.884431 0.000000
vt 0.884431 0.313371
vt 0.862971 0.313374
vt 0.473071 0.333942
vt 0.473071 0.647319
vt 0.451607 0.647319
vt 0.451607 0.333942
vt 0.494535 0.333942
vt 0.494535 0.647319
vt 0.473071 0.647319
vt 0.473071 0.333942
vt 0.412972 0.773208
vt 0.412972 0.721694
vt 0.430143 0.721694
vt 0.430143 0.773208
vt 0.103009 0.647320
vt 0.051504 0.647313
vt 0.051504 0.333942
vt 0.103009 0.333948
vt 0.772619 0.795775
vt 0.772619 0.744261
vt 0.789790 0.744261
vt 0.789790 0.795775
vt 0.000000 0.333948
vt 0.051504 0.333942
vt 0.051504 0.647313
vt -0.000000 0.647320
vt 0.965657 0.000000
vt 0.965657 0.313377
vt 0.948486 0.313377
vt 0.948486 0.000000
vt 0.965657 0.626743
vt 0.965657 0.940120
vt 0.948486 0.940120
vt 0.948486 0.626743
vt 0.695553 0.785590
vt 0.695553 0.746954
vt 0.712724 0.746954
vt 0.712724 0.785590
vt 0.180265 0.647318
vt 0.141637 0.647313
vt 0.141637 0.333942
vt 0.180265 0.333947
vt 0.341337 0.790380
vt 0.341337 0.751744
vt 0.358508 0.751744
vt 0.358508 0.790380
vt 0.103008 0.333947
vt 0.141637 0.333942
vt 0.141637 0.647313
vt 0.103009 0.647318
vt 0.982829 0.000000
vt 0.982829 0.313377
vt 0.965657 0.313377
vt 0.965657 0.000000
vt 0.982828 0.313377
vt 0.982828 0.626755
vt 0.965657 0.626755
vt 0.965657 0.313377
vt 0.240364 0.944502
vt 0.240364 0.686680
vt 0.257535 0.686680
vt 0.257535 0.944502
vt 0.511707 0.905092
vt 0.511707 0.647320
vt 0.537463 0.647317
vt 0.537463 0.905089
vt 0.257535 0.944502
vt 0.257535 0.686680
vt 0.274706 0.686680
vt 0.274706 0.944502
vt 0.128752 0.905090
vt 0.128752 0.647318
vt 0.154508 0.647321
vt 0.154508 0.905093
vt 0.806961 0.744261
vt 0.806961 0.770018
vt 0.789790 0.770018
vt 0.789790 0.744261
vt 0.806961 0.770018
vt 0.806961 0.795775
vt 0.379972 0.773208
vt 0.379972 0.751744
vt 0.401436 0.751744
vt 0.401436 0.773208
vt 0.884431 0.626748
vt 0.862971 0.626745
vt 0.862971 0.313374
vt 0.884431 0.313377
vt 0.391508 0.794672
vt 0.391508 0.773208
vt 0.412972 0.773208
vt 0.412972 0.794672
vt 0.884431 0.000003
vt 0.905891 -0.000000
vt 0.905891 0.313371
vt 0.884431 0.313374
vt 0.580392 0.333942
vt 0.558928 0.647319
vt 0.558928 0.333942
vt 0.601855 0.647319
vt 0.580391 0.647319
vt 0.580392 0.333942
vt 0.927355 0.938830
vt 0.905891 0.938830
vt 0.905891 0.625887
vt 0.927355 0.625887
vt 0.742774 0.774333
vt 0.764208 0.774311
vt 0.764208 0.795771
vt 0.927355 0.312943
vt 0.905891 0.312943
vt 0.905891 -0.000000
vt 0.927355 -0.000000
vt 0.622576 0.798464
vt 0.622576 0.777004
vt 0.644011 0.777026
vt 0.644011 0.798486
vt 0.494535 0.333942
vt 0.515999 0.333942
vt 0.515999 0.647317
vt 0.494535 0.647316
vt 0.430143 0.333942
vt 0.451607 0.333942
vt 0.451607 0.647316
vt 0.430143 0.647316
vt 0.223193 0.944502
vt 0.223193 0.686680
vt 0.240364 0.686680
vt 0.240364 0.944502
vt 0.154508 0.647321
vt 0.180265 0.647318
vt 0.180265 0.905090
vt 0.206022 0.944502
vt 0.206022 0.686680
vt 0.223193 0.686680
vt 0.223193 0.944502
vt 0.051504 0.905092
vt 0.051504 0.647320
vt 0.077261 0.647323
vt 0.077261 0.905095
vt 0.712724 0.785590
vt 0.712724 0.811347
vt 0.695553 0.811347
vt 0.695553 0.785590
vt 0.358509 0.790380
vt 0.358509 0.816137
vt 0.341337 0.816137
vt 0.311288 0.944502
vt 0.311288 0.686680
vt 0.328459 0.686680
vt 0.328459 0.944502
vt 0.473071 0.905095
vt 0.473071 0.647322
vt 0.498828 0.647319
vt 0.498828 0.905092
vt 0.188851 0.944502
vt 0.188851 0.686680
vt 0.206022 0.686680
vt 0.206022 0.944502
vt 0.025748 0.905092
vt 0.025748 0.647319
vt 0.051504 0.647323
vt 0.051504 0.905095
vt 0.661182 0.777004
vt 0.661182 0.802761
vt 0.644011 0.802761
vt 0.644011 0.777004
vt 0.682471 0.777004
vt 0.682471 0.802761
vt 0.665300 0.802761
vt 0.665300 0.777004
vt 0.294117 0.949466
vt 0.294117 0.691644
vt 0.311288 0.691644
vt 0.311288 0.949466
vt 0.447314 0.905095
vt 0.447314 0.647322
vt 0.473071 0.905092
vt 0.276946 0.949466
vt 0.276946 0.691644
vt 0.077261 0.905092
vt 0.077261 0.647320
vt 0.103017 0.647323
vt 0.103017 0.905095
vt 0.412972 0.794672
vt 0.412972 0.820430
vt 0.395801 0.820430
vt 0.395801 0.794672
vt 0.387245 0.794690
vt 0.387245 0.820447
vt 0.370073 0.820447
vt 0.370073 0.794690
vt 0.537463 0.333942
vt 0.558928 0.333942
vt 0.558928 0.647316
vt 0.537463 0.647316
vt 0.515999 0.333942
vt 0.537463 0.333942
vt 0.515999 0.647316
vt 0.712724 0.798464
vt 0.712724 0.777004
vt 0.734159 0.777026
vt 0.734159 0.798486
vt 0.927355 0.625887
vt 0.905891 0.625887
vt 0.905891 0.312943
vt 0.927355 0.312943
vt 0.370073 0.794690
vt 0.370073 0.773230
vt 0.391508 0.773208
vt 0.391508 0.794668
vt 0.905895 0.939691
vt 0.884431 0.939691
vt 0.884431 0.626748
vt 0.905895 0.626748
vt 0.000000 0.333942
vt 0.000000 0.000000
vt 0.311288 0.000000
vt 0.311288 0.333942
vt 0.277198 0.333942
vt 0.281686 0.333942
vt 0.281686 0.667877
vt 0.277198 0.667878
vt 0.952976 0.626743
vt 0.948486 0.626743
vt 0.948486 0.315458
vt 0.952976 0.315458
vt 0.277198 0.667878
vt 0.272709 0.667877
vt 0.272709 0.333942
vt 0.277198 0.333943
vt 0.311288 0.333942
vt 0.311288 -0.000000
vt 0.622576 0.000000
vt 0.622576 0.333942
vt 0.957465 0.626743
vt 0.952976 0.626743
vt 0.952976 0.315458
vt 0.957465 0.315458
vt 0.281686 0.691644
vt 0.281686 0.338253
vt 0.311288 0.333942
vt 0.311288 0.687333
vt 0.240364 0.686669
vt 0.240364 0.333942
vt 0.270413 0.333953
vt 0.270413 0.686681
vt 0.370939 0.687333
vt 0.370939 0.333942
vt 0.400541 0.338253
vt 0.400541 0.691644
vt 0.311288 0.686681
vt 0.311288 0.333953
vt 0.341337 0.333942
vt 0.341337 0.686669
vt 0.682471 0.746954
vt 0.652626 0.777004
vt 0.652626 0.746954
vt 0.742570 0.746954
vt 0.742570 0.777004
vt 0.712724 0.746954
vt 0.400541 0.691644
vt 0.400541 0.338253
vt 0.430143 0.687333
vt 0.180265 0.686669
vt 0.180265 0.333942
vt 0.210314 0.333953
vt 0.210314 0.686681
vt 0.341337 0.687333
vt 0.341337 0.333942
vt 0.370939 0.338254
vt 0.370939 0.691644
vt 0.210314 0.686681
vt 0.210314 0.333953
vt 0.240364 0.333942
vt 0.772619 0.744261
vt 0.772619 0.774311
vt 0.742774 0.774311
vt 0.742774 0.744261
vt 0.652422 0.746954
vt 0.652422 0.777004
vt 0.622576 0.777004
vt 0.622576 0.746954
vt 0.622576 0.746954
vt 0.622576 0.698195
vt 0.652626 0.698195
vt 0.832922 0.744245
vt 0.802872 0.695678
vt 0.832922 0.695662
vt 0.401134 0.721694
vt 0.419750 0.702985
vt 0.682675 0.698195
vt 0.682675 -0.000000
vt 0.712724 0.000000
vt 0.802872 0.000016
vt 0.832922 -0.000000
vt 0.622576 0.000000
vt 0.652626 -0.000000
vt 0.832922 0.744245
vt 0.832922 -0.000000
vt 0.862971 0.000016
vt 0.862971 0.695678
vt 0.681878 0.000000
vt 0.681878 0.746954
vt 0.652626 0.000000
vt 0.371236 0.721694
vt 0.371236 0.722491
vt 0.342130 0.751744
vt 0.341337 0.751744
vt 0.341337 0.721694
vt 0.742774 0.744245
vt 0.742774 -0.000000
vt 0.743570 0.000000
vt 0.743570 0.744245
vt 0.682675 0.000000
vt 0.682675 0.746954
vt 0.342130 0.691645
vt 0.371236 0.720898
vt 0.371236 0.721694
vt 0.341337 0.721694
vt 0.341337 0.691644
s 0
usemtl LightPineWood
f 5/1/1 3/2/1 1/3/1 4/4/1
f 6/5/2 7/6/2 9/7/2 8/8/2
f 10/9/3 11/10/3 7/11/3 6/12/3
f 12/13/4 13/14/4 15/15/4 14/16/4
f 14/17/5 15/18/5 19/19/5 18/20/5
f 18/21/6 19/22/6 17/23/6 16/24/6
f 16/25/7 17/26/7 13/27/7 12/28/7
f 14/29/8 18/30/8 16/31/8 12/32/8
f 19/33/9 15/34/9 13/35/9 17/36/9
f 20/37/4 21/38/4 23/39/4 22/40/4
f 22/41/5 23/42/5 27/43/5 26/44/5
f 26/45/6 27/46/6 25/47/6 24/48/6
f 24/49/7 25/50/7 21/51/7 20/52/7
f 22/53/8 26/54/8 24/55/8 20/56/8
f 27/57/9 23/58/9 21/59/9 25/60/9
f 28/61/4 29/62/4 31/63/4 30/64/4
f 30/65/5 31/66/5 35/67/5 34/68/5
f 34/69/6 35/70/6 33/71/6 32/72/6
f 32/73/7 33/74/7 29/75/7 28/76/7
f 30/77/8 34/78/8 32/79/8 28/80/8
f 35/81/9 31/82/9 29/83/9 33/84/9
f 36/72/4 37/85/4 39/86/4 38/87/4
f 38/88/5 39/89/5 43/90/5 42/91/5
f 42/92/6 43/93/6 41/94/6 40/95/6
f 40/96/7 41/97/7 37/98/7 36/99/7
f 38/100/8 42/101/8 40/102/8 36/103/8
f 43/104/9 39/105/9 37/106/9 41/107/9
f 44/108/6 45/109/6 47/4/6 46/110/6
f 46/111/7 47/112/7 51/113/7 50/114/7
f 50/115/4 51/116/4 49/117/4 48/118/4
f 48/119/5 49/120/5 45/121/5 44/122/5
f 46/123/8 50/124/8 48/125/8 44/126/8
f 51/127/9 47/128/9 45/129/9 49/130/9
f 52/131/6 53/132/6 55/133/6 54/134/6
f 54/135/7 55/136/7 59/137/7 58/138/7
f 58/139/4 59/140/4 57/141/4 56/142/4
f 56/143/5 57/144/5 53/145/5 52/146/5
f 54/147/8 58/148/8 56/149/8 52/150/8
f 59/151/9 55/152/9 53/153/9 57/154/9
f 60/155/6 61/156/6 63/157/6 62/158/6
f 62/159/7 63/160/7 67/161/7 66/162/7
f 66/163/4 67/164/4 65/165/4 64/166/4
f 64/167/5 65/168/5 61/169/5 60/170/5
f 62/171/8 66/172/8 64/173/8 60/174/8
f 67/175/9 63/176/9 61/177/9 65/178/9
f 68/179/6 69/180/6 71/181/6 70/182/6
f 70/183/7 71/184/7 75/185/7 74/186/7
f 74/187/4 75/188/4 73/189/4 72/190/4
f 72/191/5 73/192/5 69/193/5 68/194/5
f 70/195/8 74/196/8 72/197/8 68/198/8
f 75/199/9 71/200/9 69/40/9 73/197/9
f 94/201/6 95/202/6 97/203/6 96/204/6
f 96/205/7 97/206/7 101/207/7 100/208/7
f 100/209/4 101/210/4 99/211/4 98/212/4
f 98/213/5 99/214/5 95/215/5 94/216/5
f 96/217/8 100/25/8 98/218/8 94/219/8
f 101/32/9 97/220/9 95/221/9 99/222/9
f 112/223/10 113/224/10 115/225/10 114/226/10
f 114/68/11 115/227/11 119/228/11 118/229/11
f 118/230/12 119/231/12 117/232/12 116/233/12
f 116/234/13 117/235/13 113/236/13 112/237/13
f 114/238/8 118/239/8 116/240/8 112/241/8
f 119/242/9 115/243/9 113/244/9 117/245/9
f 120/246/6 121/247/6 123/248/6 122/249/6
f 122/194/7 123/250/7 127/251/7 126/252/7
f 126/253/4 127/254/4 125/255/4 124/256/4
f 124/257/5 125/258/5 121/259/5 120/260/5
f 122/261/8 126/262/8 124/263/8 120/264/8
f 127/265/9 123/266/9 121/267/9 125/163/9
f 128/268/6 129/269/6 131/270/6 130/271/6
f 130/272/7 131/273/7 135/274/7 134/275/7
f 134/276/4 135/277/4 133/278/4 132/279/4
f 132/280/5 133/281/5 129/282/5 128/283/5
f 130/284/8 134/285/8 132/286/8 128/287/8
f 135/288/9 131/289/9 129/290/9 133/291/9
f 136/292/6 137/293/6 139/294/6 138/295/6
f 138/296/7 139/297/7 143/129/7 142/298/7
f 142/299/4 143/300/4 141/293/4 140/292/4
f 140/301/5 141/302/5 137/303/5 136/304/5
f 138/305/8 142/306/8 140/307/8 136/308/8
f 143/309/9 139/310/9 137/311/9 141/312/9
f 144/313/9 148/314/9 150/315/9 146/316/9
f 149/317/8 145/318/8 147/316/8 151/319/8
f 147/320/13 146/321/13 150/322/13 151/323/13
f 145/324/12 144/325/12 146/326/12 147/327/12
f 149/328/11 148/329/11 144/330/11 145/331/11
f 151/332/10 150/333/10 148/334/10 149/335/10
f 157/336/8 153/337/8 155/338/8 159/339/8
f 157/340/5 156/341/5 152/342/5 153/343/5
f 159/344/4 158/345/4 156/346/4 157/347/4
f 155/348/7 154/349/7 158/350/7 159/351/7
f 152/352/9 156/353/9 158/354/9 154/355/9
f 153/356/6 152/357/6 154/358/6 155/359/6
f 160/360/14 161/361/14 163/362/14 162/363/14
f 162/364/15 163/365/15 167/366/15 166/367/15
f 166/368/16 167/369/16 165/370/16 164/371/16
f 164/372/17 165/373/17 161/374/17 160/375/17
f 162/376/18 166/288/18 164/377/18 160/378/18
f 167/379/19 163/380/19 161/321/19 165/381/19
f 168/382/14 169/383/14 171/242/14 170/384/14
f 170/385/15 171/386/15 175/387/15 174/388/15
f 174/389/16 175/390/16 173/391/16 172/392/16
f 172/393/17 173/394/17 169/395/17 168/364/17
f 170/396/18 174/397/18 172/398/18 168/399/18
f 175/400/19 171/401/19 169/402/19 173/403/19
f 178/404/20 181/404/20 180/405/20 179/406/20
f 176/407/21 178/407/21 179/408/21 177/409/21
f 2/410/22 181/410/22 178/411/22 176/410/22
f 176/157/2 177/412/2 1/413/2 3/414/2 2/157/2
f 179/408/3 4/415/3 1/416/3 177/409/3
f 180/405/23 5/417/23 4/418/23 179/406/23
f 2/419/24 3/420/24 5/421/24 180/422/24 181/419/24
f 184/423/25 183/424/25 182/378/25 185/425/25
f 8/426/26 182/427/26 183/428/26 10/429/26 6/430/26
f 8/431/24 9/432/24 185/433/24 182/434/24
f 183/424/23 184/423/23 11/435/23 10/436/23
f 184/437/1 185/438/1 9/439/1 7/440/1 11/441/1
l 44 76
l 45 77
l 46 78
l 47 79
l 48 80
l 49 81
l 50 82
l 51 83
l 88 85
l 86 89
l 87 84
l 90 91
l 92 93
l 94 102
l 95 103
l 96 104
l 97 105
l 98 106
l 99 107
l 100 108
l 101 109
l 111 110
o Plane
v -10.366396 -0.202289 9.752319
v 9.633604 -0.202289 9.752319
v -10.366396 -0.202289 -10.247681
v 9.633604 -0.202289 -10.247681
vn -0.0000 1.0000 -0.0000
vt 0.000000 0.000000
vt 1.000000 0.000000
vt 1.000000 1.000000
vt 0.000000 1.000000
s 0
f 186/442/27 187/443/27 189/444/27 188/445/27